<?xml version="1.0" encoding="utf-8"?>
<!-- Generator: Adobe Illustrator 18.1.0, SVG Export Plug-In . SVG Version: 6.00 Build 0)  -->
<!DOCTYPE svg PUBLIC "-//W3C//DTD SVG 1.1//EN" "http://www.w3.org/Graphics/SVG/1.1/DTD/svg11.dtd">
<svg version="1.1" id="Layer_1" xmlns="http://www.w3.org/2000/svg" xmlns:xlink="http://www.w3.org/1999/xlink" x="0px" y="0px"
	 viewBox="0 0 91.5 169.8" enable-background="new 0 0 91.5 169.8" xml:space="preserve">
<g>
	<g>
		<path fill="#E0E0E0" d="M72.1,162.7c-0.1,1.8-1.7,3.3-3.5,3.3H23.7c-1.8,0-3.4-1.5-3.5-3.3L10.4,36.2c-0.1-1.8,1.2-3.3,3-3.3h65.4
			c1.8,0,3.2,1.5,3,3.3L72.1,162.7z"/>
	</g>
	<g>
		<path fill="#B2DFDB" d="M69.6,160.1c-0.1,1.6-1.5,2.9-3.2,2.9H25.9c-1.6,0-3-1.3-3.2-2.9L13.9,48.9c-0.1-1.6,1.1-2.8,2.7-2.6
			l10.9,1.3c1.6,0.2,4.2,0.3,5.8,0.3h24.2c1.6,0,4.2-0.1,5.8-0.3l12.4-1.4c1.6-0.2,2.8,1,2.7,2.6L69.6,160.1z"/>
	</g>
	<g>
		
			<rect x="59.5" y="3.1" transform="matrix(-0.9825 -0.186 0.186 -0.9825 110.3569 175.2839)" fill="#F26B61" width="7.8" height="158.7"/>
		<g>
			<defs>
				
					<rect id="SVGID_1_" x="59.5" y="3.1" transform="matrix(-0.9825 -0.186 0.186 -0.9825 110.3569 175.2839)" width="7.8" height="158.7"/>
			</defs>
			<clipPath id="SVGID_2_">
				<use xlink:href="#SVGID_1_"  overflow="visible"/>
			</clipPath>
			
				<line clip-path="url(#SVGID_2_)" fill="none" stroke="#FFFFFF" stroke-width="8.1984" x1="240.2" y1="-111.1" x2="-117.6" y2="132.8"/>
			
				<line clip-path="url(#SVGID_2_)" fill="none" stroke="#FFFFFF" stroke-width="8.1984" x1="262" y1="-106.9" x2="-95.9" y2="137"/>
			
				<line clip-path="url(#SVGID_2_)" fill="none" stroke="#FFFFFF" stroke-width="8.1984" x1="283.7" y1="-102.8" x2="-74.1" y2="141.1"/>
			
				<line clip-path="url(#SVGID_2_)" fill="none" stroke="#FFFFFF" stroke-width="8.1984" x1="305.5" y1="-98.7" x2="-52.4" y2="145.2"/>
			
				<line clip-path="url(#SVGID_2_)" fill="none" stroke="#FFFFFF" stroke-width="8.1984" x1="327.2" y1="-94.6" x2="-30.6" y2="149.3"/>
			
				<line clip-path="url(#SVGID_2_)" fill="none" stroke="#FFFFFF" stroke-width="8.1984" x1="349" y1="-90.5" x2="-8.9" y2="153.4"/>
			
				<line clip-path="url(#SVGID_2_)" fill="none" stroke="#FFFFFF" stroke-width="8.1984" x1="370.7" y1="-86.3" x2="12.9" y2="157.6"/>
			
				<line clip-path="url(#SVGID_2_)" fill="none" stroke="#FFFFFF" stroke-width="8.1984" x1="392.5" y1="-82.2" x2="34.6" y2="161.7"/>
		</g>
	</g>
</g>
</svg>
