<?xml version="1.0" encoding="utf-8"?>
<!-- Generator: Adobe Illustrator 18.1.0, SVG Export Plug-In . SVG Version: 6.00 Build 0)  -->
<!DOCTYPE svg PUBLIC "-//W3C//DTD SVG 1.1//EN" "http://www.w3.org/Graphics/SVG/1.1/DTD/svg11.dtd">
<svg version="1.1" id="Layer_1" xmlns="http://www.w3.org/2000/svg" xmlns:xlink="http://www.w3.org/1999/xlink" x="0px" y="0px"
	 viewBox="0 0 141.5 442" enable-background="new 0 0 141.5 442" xml:space="preserve">
<g>
	<defs>
		<rect id="SVGID_1_" y="0" width="141.5" height="442"/>
	</defs>
	<clipPath id="SVGID_2_">
		<use xlink:href="#SVGID_1_"  overflow="visible"/>
	</clipPath>
	<path clip-path="url(#SVGID_2_)" fill="#BDBDBD" d="M32.5,59c0,0,4-8,16-8s16,8,16,8h16c32,0,32,32,32,32v4h-16v-4
		c0-16-16-16-16-16h-16c0,0-4,8-16,8s-16-8-16-8h-30V59H32.5z"/>
</g>
<rect x="44.5" y="43" fill="#BDBDBD" width="8" height="12"/>
<g>
	<defs>
		<rect id="SVGID_3_" y="0" width="141.5" height="442"/>
	</defs>
	<clipPath id="SVGID_4_">
		<use xlink:href="#SVGID_3_"  overflow="visible"/>
	</clipPath>
	<path clip-path="url(#SVGID_4_)" fill="#80CCC4" d="M104.5,103c0,0-8,8-8,16s8,8,8,8s8,0,8-8S104.5,103,104.5,103"/>
	<path clip-path="url(#SVGID_4_)" fill="#E0E1E0" d="M56.5,43h-16c0,0-8-12-8-16s4-4,4-4h24c0,0,4,0,4,4S56.5,43,56.5,43"/>
	<path clip-path="url(#SVGID_4_)" fill="#80CCC4" d="M56.5,23c0,0,0-8-8-8s-8,8-8,8H56.5z"/>
</g>
<polygon fill="#EDEDED" points="56.5,23 40.5,23 44.5,43 52.5,43 "/>
<g>
	<defs>
		<rect id="SVGID_5_" y="0" width="141.5" height="442"/>
	</defs>
	<clipPath id="SVGID_6_">
		<use xlink:href="#SVGID_5_"  overflow="visible"/>
	</clipPath>
	<path clip-path="url(#SVGID_6_)" fill="#E0E1E0" d="M64.5,59c0,0-4-8-16-8s-16,8-16,8v16c0,0,4,8,16,8s16-8,16-8V59z"/>
	<path clip-path="url(#SVGID_6_)" fill="#E0E1E0" d="M116.5,91v4c0,4-4,4-4,4h-16c-4,0-4-4-4-4v-4H116.5z"/>
	<path clip-path="url(#SVGID_6_)" fill="none" stroke="#FFFFFF" stroke-width="3" d="M1.5,397"/>
	<path clip-path="url(#SVGID_6_)" fill="none" stroke="#FFFFFF" stroke-width="3" d="M1.5,0"/>
	<path clip-path="url(#SVGID_6_)" fill="#80CCC4" d="M105.5,141c0,0-8,8-8,16s8,8,8,8s8,0,8-8S105.5,141,105.5,141"/>
	<path clip-path="url(#SVGID_6_)" fill="#80CCC4" d="M105.5,181c0,0-8,8-8,16s8,8,8,8s8,0,8-8S105.5,181,105.5,181"/>
	<path clip-path="url(#SVGID_6_)" fill="#80CCC4" d="M105.5,221c0,0-8,8-8,16s8,8,8,8s8,0,8-8S105.5,221,105.5,221"/>
	<path clip-path="url(#SVGID_6_)" fill="#80CCC4" d="M105.5,261c0,0-8,8-8,16s8,8,8,8s8,0,8-8S105.5,261,105.5,261"/>
	<path clip-path="url(#SVGID_6_)" fill="#E0E1E0" d="M131.7,438.8c-0.1,1.8-1.7,3.3-3.5,3.3H83.3c-1.8,0-3.4-1.5-3.5-3.3L70,312.3
		c-0.1-1.8,1.2-3.3,3-3.3h65.4c1.8,0,3.2,1.5,3,3.3L131.7,438.8z"/>
	<path clip-path="url(#SVGID_6_)" fill="#80CCC4" d="M105.5,301c0,0-8,8-8,16s8,8,8,8s8,0,8-8S105.5,301,105.5,301"/>
	<path clip-path="url(#SVGID_6_)" fill="#80CCC4" d="M105.5,341c0,0-8,8-8,16s8,8,8,8s8,0,8-8S105.5,341,105.5,341"/>
	<path clip-path="url(#SVGID_6_)" fill="#80CCC4" d="M105.5,381c0,0-8,8-8,16s8,8,8,8s8,0,8-8S105.5,381,105.5,381"/>
	<path clip-path="url(#SVGID_6_)" fill="#80CCC4" d="M129.6,439c-0.1,0.4-1.2,0.7-2.4,0.7H84.9c-1.2,0-2.3-0.3-2.4-0.7l-2-27.4
		c-0.1-0.4,0.8-0.7,2.1-0.6l9.5,0.3c1.2,0,3.3,0.1,4.5,0.1h18.8c1.2,0,3.3,0,4.5-0.1l9.6-0.3c1.2,0,2.2,0.2,2.1,0.6L129.6,439z"/>
</g>
</svg>
